<svg id="Groupe_3348" data-name="Groupe 3348" xmlns="http://www.w3.org/2000/svg" width="61.364" height="61.364" viewBox="0 0 61.364 61.364">
  <g id="Groupe_3337" data-name="Groupe 3337" transform="translate(0 25.867)">
    <path id="Tracé_5895" data-name="Tracé 5895" d="M31.862,90.3H1.463A1.471,1.471,0,0,1,0,88.834V84.963a5.4,5.4,0,0,1,3.021-4.484h.047l8.119-3.493V74.106a11.862,11.862,0,0,1-3.4-8.5c0-5.948,4.012-10.81,8.921-10.81s8.921,4.862,8.921,10.81a11.781,11.781,0,0,1-3.4,8.5v2.879l8.119,3.493H30.4a5.42,5.42,0,0,1,3.021,4.484v3.871A1.624,1.624,0,0,1,31.862,90.3ZM2.927,87.37H30.446V85.1a2.42,2.42,0,0,0-1.322-1.935L20.156,79.3a1.5,1.5,0,0,1-.9-1.322V73.445a1.508,1.508,0,0,1,.519-1.133,8.633,8.633,0,0,0,2.879-6.7c0-4.343-2.691-7.883-5.995-7.883s-5.995,3.54-5.995,7.883a8.633,8.633,0,0,0,2.879,6.7,1.508,1.508,0,0,1,.519,1.133v4.532a1.377,1.377,0,0,1-.9,1.322L4.2,83.169A2.525,2.525,0,0,0,2.879,85.1V87.37Z" transform="translate(0 -54.8)" fill="#2236aa"/>
  </g>
  <g id="Groupe_3338" data-name="Groupe 3338" transform="translate(27.714 0.005)">
    <path id="Tracé_5896" data-name="Tracé 5896" d="M60.169,31.113a1.523,1.523,0,0,1-.85-.283,1.443,1.443,0,0,1-.33-2.03l7.364-10.432a1.476,1.476,0,0,1,1.18-.614h9.818L89.435.62a1.454,1.454,0,0,1,2.36,1.7L79.286,20.067a1.476,1.476,0,0,1-1.18.614H68.288L61.4,30.5A1.566,1.566,0,0,1,60.169,31.113Z" transform="translate(-58.711 -0.011)" fill="#2236aa"/>
  </g>
  <g id="Groupe_3339" data-name="Groupe 3339" transform="translate(39.604 58.438)">
    <path id="Tracé_5897" data-name="Tracé 5897" d="M104.2,126.727H85.363a1.463,1.463,0,0,1,0-2.927H104.2a1.463,1.463,0,0,1,0,2.927Z" transform="translate(-83.9 -123.8)" fill="#2236aa"/>
  </g>
  <g id="Groupe_3340" data-name="Groupe 3340">
    <path id="Tracé_5898" data-name="Tracé 5898" d="M1.463,38A1.471,1.471,0,0,1,0,36.535V1.463A1.471,1.471,0,0,1,1.463,0H45.787A1.471,1.471,0,0,1,47.25,1.463a1.471,1.471,0,0,1-1.463,1.463H2.927V36.535A1.471,1.471,0,0,1,1.463,38Z" fill="#2236aa"/>
  </g>
  <g id="Groupe_3345" data-name="Groupe 3345" transform="translate(53.056 23.366)">
    <g id="Groupe_3341" data-name="Groupe 3341" transform="translate(0 26.292)">
      <path id="Tracé_5899" data-name="Tracé 5899" d="M119.244,108.127h-5.381a1.463,1.463,0,0,1,0-2.927h5.381a1.463,1.463,0,1,1,0,2.927Z" transform="translate(-112.4 -105.2)" fill="#2236aa"/>
    </g>
    <g id="Groupe_3342" data-name="Groupe 3342" transform="translate(0 17.512)">
      <path id="Tracé_5900" data-name="Tracé 5900" d="M119.244,89.527h-5.381a1.463,1.463,0,0,1,0-2.927h5.381a1.463,1.463,0,1,1,0,2.927Z" transform="translate(-112.4 -86.6)" fill="#2236aa"/>
    </g>
    <g id="Groupe_3343" data-name="Groupe 3343" transform="translate(0 8.78)">
      <path id="Tracé_5901" data-name="Tracé 5901" d="M119.244,71.027h-5.381a1.463,1.463,0,0,1,0-2.927h5.381a1.463,1.463,0,1,1,0,2.927Z" transform="translate(-112.4 -68.1)" fill="#2236aa"/>
    </g>
    <g id="Groupe_3344" data-name="Groupe 3344">
      <path id="Tracé_5902" data-name="Tracé 5902" d="M119.244,52.427h-5.381a1.463,1.463,0,0,1,0-2.927h5.381a1.463,1.463,0,1,1,0,2.927Z" transform="translate(-112.4 -49.5)" fill="#2236aa"/>
    </g>
  </g>
</svg>
