<svg id="Groupe_3349" data-name="Groupe 3349" xmlns="http://www.w3.org/2000/svg" width="62.895" height="62.782" viewBox="0 0 62.895 62.782">
  <path id="Tracé_5903" data-name="Tracé 5903" d="M62.838,18.292a1.411,1.411,0,0,0-.226-.79L51.716.677A1.393,1.393,0,0,0,50.53,0H12.308a1.327,1.327,0,0,0-1.186.677L.226,17.5a1.3,1.3,0,0,0-.226.79v3.331A8.6,8.6,0,0,0,14.171,26.31a8.632,8.632,0,0,0,11.517,0,8.632,8.632,0,0,0,11.517,0,8.632,8.632,0,0,0,11.517,0,8.6,8.6,0,0,0,14.171-4.686v-.282C62.838,21.341,62.838,18.292,62.838,18.292ZM13.1,2.823H49.74l9.033,14H4.009Zm46.86,18.349a5.744,5.744,0,0,1-10.219,2.2,1.411,1.411,0,0,0-2.258,0,5.671,5.671,0,0,1-4.63,2.315,5.829,5.829,0,0,1-4.63-2.315,1.411,1.411,0,0,0-2.258,0,5.671,5.671,0,0,1-4.63,2.315,5.829,5.829,0,0,1-4.63-2.315,1.411,1.411,0,0,0-2.258,0,5.671,5.671,0,0,1-4.63,2.315,5.829,5.829,0,0,1-4.63-2.315,1.411,1.411,0,0,0-2.258,0A5.671,5.671,0,0,1,8.3,25.689,5.684,5.684,0,0,1,2.71,21.172V19.7H59.846v1.468Z" fill="#2236aa"/>
  <path id="Tracé_5904" data-name="Tracé 5904" d="M29.124,11.324a1.436,1.436,0,0,0-1.863.79l-1.637,4.234a1.436,1.436,0,0,0,.79,1.863,1.648,1.648,0,0,0,.508.113,1.339,1.339,0,0,0,1.3-.9l1.637-4.234A1.35,1.35,0,0,0,29.124,11.324Z" transform="translate(-11.114 -4.887)" fill="#2236aa"/>
  <path id="Tracé_5905" data-name="Tracé 5905" d="M80.477,12.114a1.431,1.431,0,1,0-2.654,1.073l1.637,4.234a1.392,1.392,0,0,0,1.3.9,1.649,1.649,0,0,0,.508-.113,1.436,1.436,0,0,0,.79-1.863Z" transform="translate(-33.843 -4.887)" fill="#2236aa"/>
  <path id="Tracé_5906" data-name="Tracé 5906" d="M46.034,11.189a1.405,1.405,0,0,0-1.581,1.242l-.565,4.234a1.405,1.405,0,0,0,1.242,1.581H45.3A1.448,1.448,0,0,0,46.712,17l.565-4.234A1.405,1.405,0,0,0,46.034,11.189Z" transform="translate(-19.104 -4.866)" fill="#2236aa"/>
  <path id="Tracé_5907" data-name="Tracé 5907" d="M64.112,12.431a1.422,1.422,0,1,0-2.823.339L61.853,17a1.406,1.406,0,0,0,1.411,1.242h.169a1.405,1.405,0,0,0,1.242-1.581Z" transform="translate(-26.68 -4.866)" fill="#2236aa"/>
  <path id="Tracé_5908" data-name="Tracé 5908" d="M58.722,75.4V58.011A1.4,1.4,0,0,0,57.311,56.6h0A1.4,1.4,0,0,0,55.9,58.011v17.9a1.322,1.322,0,0,0,.4.96L59.4,80.256V84.6H8.023V80.256l3.105-3.388a1.6,1.6,0,0,0,.4-.96v-17.9A1.4,1.4,0,0,0,10.112,56.6h0A1.4,1.4,0,0,0,8.7,58.011V75.344L5.6,78.732a1.6,1.6,0,0,0-.4.96v6.323a1.623,1.623,0,0,0,.4,1.016,1.361,1.361,0,0,0,1.016.4h54.2a1.4,1.4,0,0,0,1.411-1.411V79.691a1.322,1.322,0,0,0-.4-.96Z" transform="translate(-2.264 -24.645)" fill="#2236aa"/>
  <path id="Tracé_5909" data-name="Tracé 5909" d="M76.155,79.917a1.4,1.4,0,0,0,1.411-1.411V58.011A1.4,1.4,0,0,0,76.155,56.6H64.411A1.4,1.4,0,0,0,63,58.011V78.449a1.4,1.4,0,0,0,1.411,1.411H76.155ZM74.743,59.479V77.094h-8.92V69.7h1.863a1.411,1.411,0,0,0,0-2.823H65.823v-7.4Z" transform="translate(-27.431 -24.645)" fill="#2236aa"/>
  <path id="Tracé_5910" data-name="Tracé 5910" d="M40.41,72.621a1.4,1.4,0,0,0,1.411-1.411v-13.1A1.4,1.4,0,0,0,40.41,56.7h-16.6A1.4,1.4,0,0,0,22.4,58.111v13.1a1.4,1.4,0,0,0,1.411,1.411Zm-15.131-13.1H39V69.742H25.279Z" transform="translate(-9.753 -24.688)" fill="#2236aa"/>
</svg>
