<svg xmlns="http://www.w3.org/2000/svg" width="73.648" height="42.572" viewBox="0 0 73.648 42.572">
  <g id="Logo" transform="translate(0 0.062)">
    <path id="Tracé_239" data-name="Tracé 239" d="M130.18,10.682,93.434.026a2.155,2.155,0,0,0-2.124.55,2.291,2.291,0,0,0-.55,2.181l10.03,38.036a2.322,2.322,0,0,0,1.555,1.631,2.111,2.111,0,0,0,1.138.019,2.174,2.174,0,0,0,.986-.569l26.7-27.38a2.291,2.291,0,0,0,.55-2.181A2.231,2.231,0,0,0,130.18,10.682Z" transform="translate(-73.487 0)" fill="#e5e5e5"/>
    <g id="Groupe_15" data-name="Groupe 15" transform="translate(0 9.412)">
      <path id="Tracé_240" data-name="Tracé 240" d="M0,84.964a.441.441,0,0,1,.436-.436H1.27a.368.368,0,0,1,.379.247l.322.853A4.07,4.07,0,0,1,4.987,84.3a3.5,3.5,0,0,1,2.92,1.4,4.605,4.605,0,0,1,3.166-1.4c2.882,0,3.944,2.143,3.944,4.513v4.3a.441.441,0,0,1-.436.436h-1.82a.441.441,0,0,1-.436-.436V88.661c0-1.176-.569-1.915-1.688-1.915a2.274,2.274,0,0,0-1.9.948s.019.455.019.853v4.57a.441.441,0,0,1-.436.436H6.636a.441.441,0,0,1-.436-.436V88.661c0-1.176-.512-1.915-1.669-1.915a2.009,2.009,0,0,0-1.9,1.422v4.949a.441.441,0,0,1-.436.436H.436A.441.441,0,0,1,0,93.117Z" transform="translate(0 -77.777)" fill="#2236aa"/>
      <path id="Tracé_241" data-name="Tracé 241" d="M92.7,87.846a5.8,5.8,0,0,1,1.65.246c.019-1.157-.341-1.555-1.176-1.555a11.1,11.1,0,0,0-2.522.341c-.322.095-.474-.114-.512-.4L89.934,85.3a.445.445,0,0,1,.322-.569,11.712,11.712,0,0,1,3.072-.436c2.806,0,3.47,1.46,3.47,3.925v4.892a.441.441,0,0,1-.436.436h-.834c-.152,0-.265-.076-.379-.322l-.265-.607a3.847,3.847,0,0,1-2.749,1.157A2.872,2.872,0,0,1,89.1,90.69C89.1,89.1,90.408,87.846,92.7,87.846Zm.038,4.02a2.09,2.09,0,0,0,1.555-.872V89.742a3.587,3.587,0,0,0-1.27-.265c-.872,0-1.46.493-1.46,1.214A1.125,1.125,0,0,0,92.741,91.866Z" transform="translate(-72.206 -77.777)" fill="#2236aa"/>
      <path id="Tracé_242" data-name="Tracé 242" d="M140.757,75.309H140a.4.4,0,0,1-.4-.4V73.375a.422.422,0,0,1,.4-.436h.758V70.455a.454.454,0,0,1,.436-.436L143.032,70a.422.422,0,0,1,.4.436v2.522h1.991a.441.441,0,0,1,.436.436v1.517a.441.441,0,0,1-.436.436H143.43v3.6c0,.626.341.721.7.721a3.489,3.489,0,0,0,1.1-.246.341.341,0,0,1,.493.246l.455,1.422a.413.413,0,0,1-.246.55,8.213,8.213,0,0,1-2.674.588c-1.725,0-2.5-1.081-2.5-2.9Z" transform="translate(-113.13 -66.189)" fill="#2236aa"/>
      <path id="Tracé_243" data-name="Tracé 243" d="M184.2,50.336a.441.441,0,0,1,.436-.436h1.915a.441.441,0,0,1,.436.436v6.5a5.517,5.517,0,0,1,2.01-.4,4.446,4.446,0,0,1,4.456,4.721,4.5,4.5,0,0,1-4.323,4.721,3.972,3.972,0,0,1-2.958-1.346l-.228.7c-.076.246-.228.436-.436.436h-.872a.441.441,0,0,1-.436-.436Zm4.57,13.121a2.155,2.155,0,0,0,2.048-2.351,2.323,2.323,0,0,0-2.692-2.2,2.661,2.661,0,0,0-1.251.474V62A1.967,1.967,0,0,0,188.77,63.457Z" transform="translate(-149.274 -49.9)" fill="#2236aa"/>
      <path id="Tracé_244" data-name="Tracé 244" d="M242.7,85.936a.441.441,0,0,1,.436-.436h1.839a.441.441,0,0,1,.436.436v4.437c0,1.195.607,1.934,1.65,1.934a1.978,1.978,0,0,0,1.8-1.688V85.936c0-.341.133-.436.493-.436h1.706a.441.441,0,0,1,.436.436v8.153a.441.441,0,0,1-.436.436h-.834a.467.467,0,0,1-.436-.341l-.265-.739a4,4,0,0,1-3.015,1.308c-2.787,0-3.811-2.143-3.811-4.437v-4.38Z" transform="translate(-196.682 -78.75)" fill="#2236aa"/>
      <path id="Tracé_245" data-name="Tracé 245" d="M303.3,84.883a.441.441,0,0,1,.436-.436h.853a.394.394,0,0,1,.4.284l.322.872a3.159,3.159,0,0,1,2.541-1.4c1.062,0,2.01.341,1.725.91l-.834,1.46a.409.409,0,0,1-.512.209,2.643,2.643,0,0,0-.645-.133,1.78,1.78,0,0,0-1.593.929v5.442a.441.441,0,0,1-.436.436h-1.82a.441.441,0,0,1-.436-.436Z" transform="translate(-245.791 -77.696)" fill="#2236aa"/>
      <path id="Tracé_246" data-name="Tracé 246" d="M345.545,84.569a4.654,4.654,0,0,1,3.375,3.584,4.627,4.627,0,1,1-9.12.967A4.641,4.641,0,0,1,345.545,84.569Zm-1.138,6.864a2.245,2.245,0,0,0,2.162-2.313,2.167,2.167,0,1,0-2.162,2.313Z" transform="translate(-275.37 -77.876)" fill="#2236aa"/>
    </g>
  </g>
</svg>
