<svg id="Groupe_20" data-name="Groupe 20" xmlns="http://www.w3.org/2000/svg" width="63.322" height="63.214" viewBox="0 0 63.322 63.214">
  <defs>
    <style>
      .cls-1 {
        fill: #fff;
      }
    </style>
  </defs>
  <path id="Tracé_268" data-name="Tracé 268" class="cls-1" d="M56.076,2.225A5.029,5.029,0,0,0,48.3,1.485a4.7,4.7,0,0,0-1.111,1.6,11.016,11.016,0,0,1-2.345,3.333L43.61,7.656,40.894,4.941a1.193,1.193,0,0,0-1.728,0l-12.1,12.1A1.222,1.222,0,1,0,28.8,18.765L40.03,7.533l2.715,2.715L46.7,14.2l2.715,2.715L35.463,30.984a1.193,1.193,0,0,0,0,1.728,1.333,1.333,0,0,0,.864.37,1.121,1.121,0,0,0,.864-.37L51.879,18.024a1.193,1.193,0,0,0,0-1.728l-2.715-2.715,1.6-1.6a9.8,9.8,0,0,1,3.086-2.1A4.939,4.939,0,0,0,56.2,8.026,5.463,5.463,0,0,0,56.076,2.225ZM54.1,6.545a2.465,2.465,0,0,1-1.234.987,11.08,11.08,0,0,0-3.826,2.592l-1.6,1.6L45.214,9.508l1.234-1.234a13.105,13.105,0,0,0,2.962-4.2,2.214,2.214,0,0,1,.617-.864,3.352,3.352,0,0,1,2.1-.741A3.207,3.207,0,0,1,54.1,3.583,3.147,3.147,0,0,1,54.1,6.545Z" transform="translate(6.348 0.015)"/>
  <path id="Tracé_269" data-name="Tracé 269" class="cls-1" d="M30.628,35.881,17.421,49.087l-9.5-9.5L18.9,28.6a1.222,1.222,0,1,0-1.728-1.728L5.325,38.719a1.193,1.193,0,0,0,0,1.728L8.04,43.163,6.189,45.138a9.8,9.8,0,0,1-3.086,2.1A4.939,4.939,0,0,0,.758,49.087a5.253,5.253,0,0,0,0,5.678,5.132,5.132,0,0,0,3.7,2.222h.494a4.943,4.943,0,0,0,3.579-1.481,4.7,4.7,0,0,0,1.111-1.6,11.016,11.016,0,0,1,2.345-3.333l1.481-1.481L16.187,51.8a1.193,1.193,0,0,0,1.728,0L32.109,37.609a1.193,1.193,0,0,0,0-1.728C31.862,35.387,31.122,35.387,30.628,35.881ZM10.386,48.717a13.1,13.1,0,0,0-2.962,4.2,2.214,2.214,0,0,1-.617.864,2.609,2.609,0,0,1-2.1.741,3.207,3.207,0,0,1-1.975-1.111,2.408,2.408,0,0,1,0-2.839,2.465,2.465,0,0,1,1.234-.987,10.8,10.8,0,0,0,3.95-2.715l1.6-1.6,2.222,2.222Z" transform="translate(0.075 6.227)"/>
  <path id="Tracé_270" data-name="Tracé 270" class="cls-1" d="M45.515,38.613a4.026,4.026,0,0,0-4.2-.864c-.123-2.1-1.481-5.678-5.554-11.973A106.9,106.9,0,0,0,23.174,9.731C15.645,2.325,7.129-.39,3.426,3.312,1.451,5.287,1.2,8.373,2.562,12.2A30.017,30.017,0,0,0,9.844,23.061,106.9,106.9,0,0,0,25.89,35.651c6.295,4.073,9.751,5.431,11.973,5.554a4.128,4.128,0,0,0,.864,4.2L52.921,59.6a3.874,3.874,0,0,0,5.431,0l1.481-1.481h0a3.874,3.874,0,0,0,0-5.431ZM27.124,33.676A110.234,110.234,0,0,1,11.449,21.333a26.752,26.752,0,0,1-6.665-10,9.6,9.6,0,0,1-.617-4.32,53.392,53.392,0,0,0,9.257,12.466C18.731,24.789,30.58,34.293,36.011,38.49A44.6,44.6,0,0,1,27.124,33.676ZM7.252,7.139a57.927,57.927,0,0,1,10.491,8.023c3.826,3.826,9.874,11.109,14.441,16.91-5.8-4.69-13.207-10.738-16.91-14.441A43.089,43.089,0,0,1,7.252,7.139Zm12.219,6.418A54.924,54.924,0,0,0,7.005,4.3c.37,0,.617-.123.987-.123,3.333,0,8.517,2.345,13.454,7.406C28.358,18.494,36.752,30.961,38.6,36.391,34.406,30.961,24.779,18.865,19.472,13.557Zm38.386,42.83-1.481,1.481a1.5,1.5,0,0,1-1.975,0L40.331,43.674a1.5,1.5,0,0,1,0-1.975l1.481-1.481a1.5,1.5,0,0,1,1.975,0L57.981,54.412A1.378,1.378,0,0,1,57.858,56.387Z" transform="translate(0.493 0.409)"/>
  <path id="Tracé_271" data-name="Tracé 271" class="cls-1" d="M35.317,35.326a2.277,2.277,0,0,0-.617,1.481,2.044,2.044,0,0,0,.617,1.481,2.086,2.086,0,0,0,2.962,0,2.161,2.161,0,0,0,0-3.086A2.128,2.128,0,0,0,35.317,35.326Zm1.728,1.728a.349.349,0,1,1-.494-.494c.123-.123.123-.123.247-.123s.123,0,.247.123a.431.431,0,0,1,.123.247C37.169,36.931,37.045,36.931,37.045,37.054Z" transform="translate(8.222 8.139)"/>
</svg>
