<svg id="Groupe_3393" data-name="Groupe 3393" xmlns="http://www.w3.org/2000/svg" width="72.787" height="57.462" viewBox="0 0 72.787 57.462">
  <g id="Groupe_3383" data-name="Groupe 3383" transform="translate(0 13.077)">
    <path id="Tracé_5948" data-name="Tracé 5948" d="M58.258,61.833H1.453A1.46,1.46,0,0,1,0,60.38V29.353A1.46,1.46,0,0,1,1.453,27.9H58.258a1.46,1.46,0,0,1,1.453,1.453V60.38A1.4,1.4,0,0,1,58.258,61.833ZM2.953,58.881H56.806V30.806H2.953Z" transform="translate(0 -27.9)" fill="#2236aa"/>
  </g>
  <g id="Groupe_3384" data-name="Groupe 3384" transform="translate(6.562 6.609)">
    <path id="Tracé_5949" data-name="Tracé 5949" d="M72.258,47.986a1.46,1.46,0,0,1-1.453-1.453V17.006H15.453a1.453,1.453,0,1,1,0-2.906H72.258a1.46,1.46,0,0,1,1.453,1.453V46.58A1.451,1.451,0,0,1,72.258,47.986Z" transform="translate(-14 -14.1)" fill="#2236aa"/>
  </g>
  <g id="Groupe_3385" data-name="Groupe 3385" transform="translate(13.077)">
    <path id="Tracé_5950" data-name="Tracé 5950" d="M86.158,33.933a1.46,1.46,0,0,1-1.453-1.453V2.953H29.353A1.46,1.46,0,0,1,27.9,1.5,1.471,1.471,0,0,1,29.353,0H86.158a1.46,1.46,0,0,1,1.453,1.453V32.48A1.46,1.46,0,0,1,86.158,33.933Z" transform="translate(-27.9)" fill="#2236aa"/>
  </g>
  <g id="Groupe_3386" data-name="Groupe 3386" transform="translate(21.091 19.591)">
    <path id="Tracé_5951" data-name="Tracé 5951" d="M53.765,62.7C48.937,62.7,45,58.017,45,52.252S48.937,41.8,53.765,41.8s8.765,4.687,8.765,10.452S58.639,62.7,53.765,62.7Zm0-17.951c-3.234,0-5.859,3.375-5.859,7.5s2.625,7.5,5.859,7.5,5.859-3.375,5.859-7.5S57,44.753,53.765,44.753Z" transform="translate(-45 -41.8)" fill="#2236aa"/>
  </g>
  <g id="Groupe_3389" data-name="Groupe 3389" transform="translate(6.562 19.638)">
    <g id="Groupe_3387" data-name="Groupe 3387">
      <path id="Tracé_5952" data-name="Tracé 5952" d="M26.045,62.757H19.3A1.46,1.46,0,0,1,17.843,61.3a2.4,2.4,0,0,0-2.39-2.39A1.46,1.46,0,0,1,14,57.461V47.2a1.46,1.46,0,0,1,1.453-1.453,2.4,2.4,0,0,0,2.39-2.39A1.46,1.46,0,0,1,19.3,41.9h6.749a1.453,1.453,0,1,1,0,2.906H20.562a5.314,5.314,0,0,1-3.656,3.656v7.687A5.314,5.314,0,0,1,20.562,59.8h5.484a1.477,1.477,0,0,1,0,2.953Z" transform="translate(-14 -41.9)" fill="#2236aa"/>
    </g>
    <g id="Groupe_3388" data-name="Groupe 3388" transform="translate(33.137)">
      <path id="Tracé_5953" data-name="Tracé 5953" d="M92.9,62.757H86.153a1.453,1.453,0,0,1,0-2.906h5.484A5.314,5.314,0,0,1,95.292,56.2V48.462a5.314,5.314,0,0,1-3.656-3.656H86.153a1.453,1.453,0,0,1,0-2.906H92.9a1.46,1.46,0,0,1,1.453,1.453,2.4,2.4,0,0,0,2.39,2.39A1.46,1.46,0,0,1,98.2,47.2V57.414a1.46,1.46,0,0,1-1.453,1.453,2.4,2.4,0,0,0-2.39,2.39A1.471,1.471,0,0,1,92.9,62.757Z" transform="translate(-84.7 -41.9)" fill="#2236aa"/>
    </g>
  </g>
  <g id="Groupe_3390" data-name="Groupe 3390" transform="translate(19.685 53.243)">
    <path id="Tracé_5954" data-name="Tracé 5954" d="M44.109,117.818a2.109,2.109,0,1,1,2.109-2.109A2.071,2.071,0,0,1,44.109,117.818Z" transform="translate(-42 -113.6)" fill="#2236aa"/>
  </g>
  <g id="Groupe_3391" data-name="Groupe 3391" transform="translate(27.747 53.243)">
    <path id="Tracé_5955" data-name="Tracé 5955" d="M61.309,117.818a2.109,2.109,0,1,1,2.109-2.109A2.071,2.071,0,0,1,61.309,117.818Z" transform="translate(-59.2 -113.6)" fill="#2236aa"/>
  </g>
  <g id="Groupe_3392" data-name="Groupe 3392" transform="translate(35.855 53.243)">
    <path id="Tracé_5956" data-name="Tracé 5956" d="M78.609,117.818a2.109,2.109,0,1,1,2.109-2.109A2.1,2.1,0,0,1,78.609,117.818Z" transform="translate(-76.5 -113.6)" fill="#2236aa"/>
  </g>
</svg>
