<svg id="Groupe_3425" data-name="Groupe 3425" xmlns="http://www.w3.org/2000/svg" width="54.763" height="54.759" viewBox="0 0 54.763 54.759">
  <path id="Tracé_5990" data-name="Tracé 5990" d="M52.9,98.26H22.627a5.275,5.275,0,0,0-5.267,5.267v3.687a1.052,1.052,0,0,0,1.053,1.053H57.106a1.052,1.052,0,0,0,1.053-1.053v-3.687A5.269,5.269,0,0,0,52.9,98.26Zm3.156,7.9H19.467v-2.633a3.163,3.163,0,0,1,3.16-3.16H52.9a3.163,3.163,0,0,1,3.16,3.16v2.633Z" transform="translate(-10.38 -58.755)" fill="#2236aa"/>
  <path id="Tracé_5991" data-name="Tracé 5991" d="M25.6,19.853A1.052,1.052,0,0,0,26.657,18.8V2.107h30.8V18.8a1.053,1.053,0,0,0,2.107,0V1.053A1.052,1.052,0,0,0,58.515,0H25.6A1.052,1.052,0,0,0,24.55,1.053V18.8A1.06,1.06,0,0,0,25.6,19.853Z" transform="translate(-14.68)" fill="#2236aa"/>
  <path id="Tracé_5992" data-name="Tracé 5992" d="M42.7,22.393V31.56a1.053,1.053,0,0,0,2.107,0V22.393a1.053,1.053,0,0,0-2.107,0Z" transform="translate(-25.533 -12.76)" fill="#2236aa"/>
  <path id="Tracé_5993" data-name="Tracé 5993" d="M88.26,22.393V31.56a1.053,1.053,0,0,0,2.107,0V22.393a1.053,1.053,0,0,0-2.107,0Z" transform="translate(-52.775 -12.76)" fill="#2236aa"/>
  <path id="Tracé_5994" data-name="Tracé 5994" d="M54.759,64.949a7.726,7.726,0,0,0-7.719-7.719H7.719A7.732,7.732,0,0,0,0,64.949V87.926A1.057,1.057,0,0,0,1.053,88.98H53.709a1.057,1.057,0,0,0,1.053-1.053ZM7.719,59.337h39.32a5.618,5.618,0,0,1,5.613,5.613v2.457H2.107V64.949A5.623,5.623,0,0,1,7.719,59.337ZM2.107,86.877V69.517H52.652v17.36Z" transform="translate(0 -34.221)" fill="#2236aa"/>
  <path id="Tracé_5995" data-name="Tracé 5995" d="M109.3,71.74a1.58,1.58,0,1,0-1.58-1.58A1.58,1.58,0,0,0,109.3,71.74Z" transform="translate(-64.412 -41.008)" fill="#2236aa"/>
</svg>
