<svg id="Groupe_58" data-name="Groupe 58" xmlns="http://www.w3.org/2000/svg" width="52.932" height="52.893" viewBox="0 0 52.932 52.893">
  <g id="Groupe_51" data-name="Groupe 51" transform="translate(31.065 33.23)">
    <path id="Tracé_310" data-name="Tracé 310" d="M87.751,97.449a1.282,1.282,0,0,1-1.005-.5l-6.186-9.125a1.2,1.2,0,0,1,1.972-1.353l5.22,7.656,5.22-7.656a1.2,1.2,0,1,1,1.972,1.353l-6.225,9.086A1.1,1.1,0,0,1,87.751,97.449Z" transform="translate(-80.345 -85.945)" fill="#2236aa"/>
  </g>
  <g id="Groupe_52" data-name="Groupe 52">
    <path id="Tracé_311" data-name="Tracé 311" d="M19.912,32.207H1.2a1.2,1.2,0,0,1-1.2-1.2V27.49a4.8,4.8,0,0,1,2.668-3.944h.039l7.5-3.248V17.515A10.6,10.6,0,0,1,7.076,9.782C7.076,4.369,10.671,0,15.118,0c4.408,0,8.042,4.369,8.042,9.782a10.6,10.6,0,0,1-3.132,7.733V20.3l2.745,1.16a1.2,1.2,0,1,1-.967,2.2l-3.441-1.508a1.227,1.227,0,0,1-.735-1.083V16.935a1.235,1.235,0,0,1,.425-.928,8.085,8.085,0,0,0,2.668-6.264c0-4.06-2.513-7.385-5.645-7.385-3.093,0-5.645,3.325-5.645,7.385A8.085,8.085,0,0,0,12.1,16.007a1.235,1.235,0,0,1,.425.928v4.137a1.128,1.128,0,0,1-.735,1.083L3.673,25.712A2.391,2.391,0,0,0,2.4,27.606v2.2H19.912a1.2,1.2,0,0,1,0,2.4Z" fill="#2236aa"/>
  </g>
  <g id="Groupe_53" data-name="Groupe 53" transform="translate(24.049 24.049)">
    <path id="Tracé_312" data-name="Tracé 312" d="M86.674,91.043H66.569A4.364,4.364,0,0,1,62.2,86.674V66.569A4.364,4.364,0,0,1,66.569,62.2H86.674a4.364,4.364,0,0,1,4.369,4.369V86.674A4.34,4.34,0,0,1,86.674,91.043ZM66.569,64.6a2.021,2.021,0,0,0-2.011,2.011V86.713a2.021,2.021,0,0,0,2.011,2.011H86.674a2.021,2.021,0,0,0,2.011-2.011V66.608A2.021,2.021,0,0,0,86.674,64.6Z" transform="translate(-62.2 -62.2)" fill="#2236aa"/>
  </g>
  <g id="Groupe_57" data-name="Groupe 57" transform="translate(32.053)">
    <g id="Groupe_54" data-name="Groupe 54">
      <path id="Tracé_313" data-name="Tracé 313" d="M102.541,2.4H84.1a1.2,1.2,0,0,1-1.2-1.2A1.2,1.2,0,0,1,84.1,0H102.58a1.2,1.2,0,0,1,1.2,1.2A1.213,1.213,0,0,1,102.541,2.4Z" transform="translate(-82.9)" fill="#2236aa"/>
    </g>
    <g id="Groupe_55" data-name="Groupe 55" transform="translate(6.612 6.38)">
      <path id="Tracé_314" data-name="Tracé 314" d="M113.03,18.9H101.2a1.2,1.2,0,1,1,0-2.4H113.03a1.2,1.2,0,0,1,1.2,1.2A1.18,1.18,0,0,1,113.03,18.9Z" transform="translate(-100 -16.5)" fill="#2236aa"/>
    </g>
    <g id="Groupe_56" data-name="Groupe 56" transform="translate(13.262 12.759)">
      <path id="Tracé_315" data-name="Tracé 315" d="M123.58,35.4H118.4a1.2,1.2,0,1,1,0-2.4h5.181a1.2,1.2,0,0,1,1.2,1.2A1.18,1.18,0,0,1,123.58,35.4Z" transform="translate(-117.2 -33)" fill="#2236aa"/>
    </g>
  </g>
</svg>
