<svg id="Groupe_3379" data-name="Groupe 3379" xmlns="http://www.w3.org/2000/svg" width="76.464" height="63.3" viewBox="0 0 76.464 63.3">
  <path id="Tracé_5919" data-name="Tracé 5919" d="M61.739,30A14.039,14.039,0,1,0,75.777,44.039,14.037,14.037,0,0,0,61.739,30Zm0,25.442a11.378,11.378,0,1,1,11.352-11.4A11.41,11.41,0,0,1,61.739,55.442Z" transform="translate(-23.525 -14.796)" fill="#2236aa"/>
  <path id="Tracé_5920" data-name="Tracé 5920" d="M68.249,43.2A7.349,7.349,0,1,0,75.6,50.549,7.354,7.354,0,0,0,68.249,43.2Zm0,12.011a4.663,4.663,0,1,1,4.663-4.663A4.65,4.65,0,0,1,68.249,55.211Z" transform="translate(-30.036 -21.306)" fill="#2236aa"/>
  <path id="Tracé_5921" data-name="Tracé 5921" d="M40.686,114.3a2.686,2.686,0,1,0,2.686,2.686A2.671,2.671,0,0,0,40.686,114.3Z" transform="translate(-18.741 -56.372)" fill="#2236aa"/>
  <path id="Tracé_5922" data-name="Tracé 5922" d="M72.786,114.3a2.686,2.686,0,1,0,2.686,2.686A2.671,2.671,0,0,0,72.786,114.3Z" transform="translate(-34.573 -56.372)" fill="#2236aa"/>
  <path id="Tracé_5923" data-name="Tracé 5923" d="M104.986,114.3a2.686,2.686,0,1,0,2.686,2.686A2.671,2.671,0,0,0,104.986,114.3Z" transform="translate(-50.454 -56.372)" fill="#2236aa"/>
  <path id="Tracé_5924" data-name="Tracé 5924" d="M76.122,28.432a67.316,67.316,0,0,0-9.376-8.717l3.041-3.7a1.334,1.334,0,1,0-2.078-1.672l-3.092,3.8a56.8,56.8,0,0,0-10.694-6.132l2.585-6.132a1.351,1.351,0,1,0-2.483-1.064L51.39,11A38.307,38.307,0,0,0,39.531,8.565V1.318a1.318,1.318,0,1,0-2.635,0v7.2a38.307,38.307,0,0,0-11.859,2.433L22.4,4.815a1.351,1.351,0,0,0-2.483,1.064L22.5,12.011a56.8,56.8,0,0,0-10.694,6.132l-3.092-3.8a1.334,1.334,0,0,0-2.078,1.672l3.041,3.7A64.033,64.033,0,0,0,.3,28.432a1.373,1.373,0,0,0,0,1.723c.71.811,17.181,19.867,37.909,19.867S75.413,30.915,76.122,30.1A1.193,1.193,0,0,0,76.122,28.432Zm-37.909,18.9c-17.079,0-31.625-14.343-35.071-18.093,3.5-3.7,17.992-18.093,35.071-18.093S69.787,25.492,73.284,29.243C69.838,32.993,55.293,47.336,38.213,47.336Z" fill="#2236aa"/>
</svg>
