<svg id="Groupe_26" data-name="Groupe 26" xmlns="http://www.w3.org/2000/svg" width="37.516" height="26.666" viewBox="0 0 37.516 26.666">
  <defs>
    <style>
      .cls-1 {
        fill: #2236aa;
      }
    </style>
  </defs>
  <path id="Tracé_279" data-name="Tracé 279" class="cls-1" d="M39.562,11.881H11.749a.669.669,0,0,1-.649-.649v-.115C11.1,5,17.633,0,25.656,0S40.211,5,40.211,11.117v.153A.692.692,0,0,1,39.562,11.881ZM12.4,10.582H38.874C38.492,5.425,32.685,1.3,25.656,1.3,18.588,1.3,12.819,5.425,12.4,10.582Z" transform="translate(-6.859)"/>
  <g id="Groupe_25" data-name="Groupe 25" transform="translate(1.299 16.313)">
    <path id="Tracé_280" data-name="Tracé 280" class="cls-1" d="M38.834,60.16H14.039a.61.61,0,0,1-.535-.306,8.748,8.748,0,0,1-1.6-5,.633.633,0,0,1,.191-.458.7.7,0,0,1,.458-.191H40.362a.633.633,0,0,1,.458.191.7.7,0,0,1,.191.458,9.354,9.354,0,0,1-1.6,5A.725.725,0,0,1,38.834,60.16Zm-24.412-1.3H38.49a7.933,7.933,0,0,0,1.184-3.324H13.237A7.44,7.44,0,0,0,14.421,58.861Z" transform="translate(-8.653 -49.807)"/>
    <path id="Tracé_281" data-name="Tracé 281" class="cls-1" d="M35.491,48.431H6.265a2.865,2.865,0,0,1,0-5.731H35.491a2.865,2.865,0,0,1,0,5.731ZM6.265,43.961a1.566,1.566,0,1,0,0,3.133H35.491a1.566,1.566,0,0,0,0-3.133Z" transform="translate(-3.4 -42.7)"/>
  </g>
  <path id="Tracé_282" data-name="Tracé 282" class="cls-1" d="M30.869,36.074a7.069,7.069,0,0,1-3.286-.726,5.524,5.524,0,0,0-2.751-.611,5.974,5.974,0,0,0-2.751.611,7.069,7.069,0,0,1-3.286.726,7.069,7.069,0,0,1-3.286-.726,5.524,5.524,0,0,0-2.751-.611,5.974,5.974,0,0,0-2.751.611,7.069,7.069,0,0,1-3.286.726,7.069,7.069,0,0,1-3.286-.726,5.524,5.524,0,0,0-2.751-.611A.739.739,0,0,1,0,34.049.669.669,0,0,1,.649,33.4a7.069,7.069,0,0,1,3.286.726,5.524,5.524,0,0,0,2.751.611,5.974,5.974,0,0,0,2.751-.611,7.069,7.069,0,0,1,3.286-.726,7.069,7.069,0,0,1,3.286.726,5.524,5.524,0,0,0,2.751.611,5.974,5.974,0,0,0,2.751-.611,7.069,7.069,0,0,1,3.286-.726,7.069,7.069,0,0,1,3.286.726,5.524,5.524,0,0,0,2.751.611,5.974,5.974,0,0,0,2.751-.611,7.07,7.07,0,0,1,3.286-.726.649.649,0,0,1,0,1.3,5.974,5.974,0,0,0-2.751.611A6.692,6.692,0,0,1,30.869,36.074Z" transform="translate(0 -20.64)"/>
</svg>
