<svg id="Groupe_3409" data-name="Groupe 3409" xmlns="http://www.w3.org/2000/svg" width="57.566" height="55.115" viewBox="0 0 57.566 55.115">
  <path id="Tracé_5965" data-name="Tracé 5965" d="M48.46,0a9.119,9.119,0,0,0-9.091,8.573H1.093A1.093,1.093,0,0,0,0,9.666V54.022a1.093,1.093,0,0,0,1.093,1.093H48.46a9.116,9.116,0,0,0,9.106-9.106V9.106A9.114,9.114,0,0,0,48.46,0ZM2.185,52.929V10.759H39.354V46.006a9.085,9.085,0,0,0,3.2,6.921H2.185Zm46.275,0a6.921,6.921,0,1,1,6.921-6.921A6.93,6.93,0,0,1,48.46,52.929Zm0-16.03a9.085,9.085,0,0,0-6.921,3.2V9.106a6.921,6.921,0,1,1,13.842,0V40.1A9.081,9.081,0,0,0,48.46,36.9Z" fill="#2236aa"/>
  <path id="Tracé_5966" data-name="Tracé 5966" d="M206.379,190.85a4.3,4.3,0,1,0,4.3,4.3A4.3,4.3,0,0,0,206.379,190.85Zm0,6.414a2.113,2.113,0,1,1,2.113-2.113A2.116,2.116,0,0,1,206.379,197.264Z" transform="translate(-157.918 -149.142)" fill="#2236aa"/>
  <path id="Tracé_5967" data-name="Tracé 5967" d="M56.234,83.19h-25.2a1.093,1.093,0,0,0-1.093,1.093v4.508a1.091,1.091,0,0,0,.245,2.155h1.694a1.091,1.091,0,0,0,.245-2.155V85.375h6.74v15.6H32.123v-3.06a1.091,1.091,0,0,0-.245-2.155H30.185a1.091,1.091,0,0,0-.245,2.155v11.51a1.093,1.093,0,0,0,1.093,1.093h11.51v.562a1.093,1.093,0,1,0,2.185,0v-.562h3.534v.562a1.093,1.093,0,0,0,2.185,0v-.562h5.791a1.093,1.093,0,0,0,1.093-1.093V84.283A1.1,1.1,0,0,0,56.234,83.19Zm-1.093,25.143h-4.7v-.562a1.093,1.093,0,1,0-2.185,0v.562H44.724v-.562a1.093,1.093,0,1,0-2.185,0v.562H32.123V103.16h7.83a1.093,1.093,0,0,0,1.093-1.093V98.826h8.3a1.093,1.093,0,1,0,0-2.185h-8.3V85.375h7.212v6.418a1.093,1.093,0,1,0,2.185,0V85.375h4.7Z" transform="translate(-22.733 -65.01)" fill="#2236aa"/>
</svg>
