<svg xmlns="http://www.w3.org/2000/svg" width="55.589" height="55.532" viewBox="0 0 55.589 55.532">
  <g id="Groupe_50" data-name="Groupe 50" transform="translate(0.041)">
    <path id="Tracé_303" data-name="Tracé 303" d="M43.648,60.4H30.066a1.243,1.243,0,0,0-.881.361L.336,89.609a1.236,1.236,0,0,0,.881,2.124H28.423a1.243,1.243,0,0,0,.881-.361L44.53,76.146a1.243,1.243,0,0,0,.361-.881V61.682A1.257,1.257,0,0,0,43.648,60.4ZM40.363,70.737A1.248,1.248,0,0,0,39.121,69.5a3.3,3.3,0,0,1-3.285-3.285,1.248,1.248,0,0,0-1.242-1.242,3.358,3.358,0,0,1-3.045-2h8.214l.04.04,2.6,2.6.04.04v8.214A3.5,3.5,0,0,1,40.363,70.737ZM27.9,89.248H4.263L29.344,64.166a5.754,5.754,0,0,0,4.087,3.205A5.732,5.732,0,0,0,37.959,71.9a5.754,5.754,0,0,0,3.205,4.087Z" transform="translate(0 -36.2)" fill="#2236aa"/>
    <path id="Tracé_304" data-name="Tracé 304" d="M51.385,86.961a1.258,1.258,0,0,0-1.763,0L36.761,99.822a1.258,1.258,0,0,0,0,1.763,1.258,1.258,0,0,0,1.763,0L51.385,88.724A1.258,1.258,0,0,0,51.385,86.961Z" transform="translate(-21.84 -51.902)" fill="#2236aa"/>
    <path id="Tracé_305" data-name="Tracé 305" d="M67.514,98.461l-8.254,8.254a1.258,1.258,0,0,0,0,1.763,1.258,1.258,0,0,0,1.763,0l8.254-8.254a1.247,1.247,0,0,0-1.763-1.763Z" transform="translate(-35.325 -58.795)" fill="#2236aa"/>
    <path id="Tracé_306" data-name="Tracé 306" d="M54.29,0H1.242A1.248,1.248,0,0,0,0,1.242V27.766a1.248,1.248,0,0,0,1.242,1.242H19.873a1.242,1.242,0,0,0,0-2.484H2.524v-24H53.048v24H49.282a1.242,1.242,0,1,0,0,2.484H54.33a1.248,1.248,0,0,0,1.242-1.242V1.242A1.311,1.311,0,0,0,54.29,0Z" transform="translate(-0.024)" fill="#2236aa"/>
    <path id="Tracé_307" data-name="Tracé 307" d="M95.3,32.4a1.248,1.248,0,0,0-1.242,1.242v2.364H83.884V33.642a1.242,1.242,0,0,0-2.484,0v3.646a1.248,1.248,0,0,0,1.242,1.242H95.3a1.248,1.248,0,0,0,1.242-1.242V33.642A1.248,1.248,0,0,0,95.3,32.4Z" transform="translate(-48.81 -19.418)" fill="#2236aa"/>
    <path id="Tracé_308" data-name="Tracé 308" d="M24.442,43.984H37.3a1.242,1.242,0,0,0,0-2.484H24.442a1.242,1.242,0,0,0,0,2.484Z" transform="translate(-13.929 -24.872)" fill="#2236aa"/>
    <path id="Tracé_309" data-name="Tracé 309" d="M24.442,27.284H37.3a1.242,1.242,0,1,0,0-2.484H24.442a1.242,1.242,0,0,0,0,2.484Z" transform="translate(-13.929 -14.863)" fill="#2236aa"/>
  </g>
</svg>
