<svg id="Groupe_3359" data-name="Groupe 3359" xmlns="http://www.w3.org/2000/svg" width="62.114" height="62.114" viewBox="0 0 62.114 62.114">
  <g id="Groupe_3350" data-name="Groupe 3350">
    <path id="Tracé_5911" data-name="Tracé 5911" d="M46.767,62.114H1.4a1.382,1.382,0,0,1-1.4-1.4V8.371A8.36,8.36,0,0,1,8.371,0H53.743a8.371,8.371,0,0,1,0,16.742,1.4,1.4,0,0,1,0-2.79,5.581,5.581,0,1,0-5.581-5.581V60.663A1.43,1.43,0,0,1,46.767,62.114ZM2.79,59.268H45.316V8.371A8.356,8.356,0,0,1,47.437,2.79H8.371A5.6,5.6,0,0,0,2.79,8.371Z" fill="#2236aa"/>
  </g>
  <g id="Groupe_3351" data-name="Groupe 3351" transform="translate(10.096 10.213)">
    <path id="Tracé_5912" data-name="Tracé 5912" d="M32.048,43.581a1.228,1.228,0,0,1-.725-.223c-1.4-.837-13.505-8.315-13.226-17.3A7.86,7.86,0,0,1,25.909,18.3a10.178,10.178,0,0,1,6.139,2.288A9.841,9.841,0,0,1,38.187,18.3,7.824,7.824,0,0,1,46,26.057c.223,8.985-11.887,16.463-13.226,17.3A1.122,1.122,0,0,1,32.048,43.581ZM25.909,21.09a5.111,5.111,0,0,0-5.023,5.023c-.167,5.692,6.864,11.608,11.162,14.4,4.3-2.735,11.329-8.706,11.162-14.4a5.037,5.037,0,0,0-5.023-5.023,7.073,7.073,0,0,0-5.078,2.4,1.586,1.586,0,0,1-1.06.5,1.374,1.374,0,0,1-1.06-.5A6.975,6.975,0,0,0,25.909,21.09Z" transform="translate(-18.091 -18.3)" fill="#2236aa"/>
  </g>
  <g id="Groupe_3358" data-name="Groupe 3358" transform="translate(10.492 40.963)">
    <g id="Groupe_3354" data-name="Groupe 3354">
      <g id="Groupe_3352" data-name="Groupe 3352" transform="translate(9.711 0.558)">
        <path id="Tracé_5913" data-name="Tracé 5913" d="M52.273,77.19H37.6a1.4,1.4,0,1,1,0-2.79H52.273a1.4,1.4,0,0,1,0,2.79Z" transform="translate(-36.2 -74.4)" fill="#2236aa"/>
      </g>
      <g id="Groupe_3353" data-name="Groupe 3353">
        <path id="Tracé_5914" data-name="Tracé 5914" d="M20.809,77.418a2.009,2.009,0,1,1,2.009-2.009A2,2,0,0,1,20.809,77.418Z" transform="translate(-18.8 -73.4)" fill="#2236aa"/>
      </g>
    </g>
    <g id="Groupe_3357" data-name="Groupe 3357" transform="translate(0 7.59)">
      <g id="Groupe_3355" data-name="Groupe 3355" transform="translate(9.711 0.558)">
        <path id="Tracé_5915" data-name="Tracé 5915" d="M52.273,90.79H37.6a1.4,1.4,0,0,1,0-2.79H52.273a1.4,1.4,0,0,1,0,2.79Z" transform="translate(-36.2 -88)" fill="#2236aa"/>
      </g>
      <g id="Groupe_3356" data-name="Groupe 3356">
        <path id="Tracé_5916" data-name="Tracé 5916" d="M20.809,91.018a2.009,2.009,0,1,1,2.009-2.009A2,2,0,0,1,20.809,91.018Z" transform="translate(-18.8 -87)" fill="#2236aa"/>
      </g>
    </g>
  </g>
</svg>
