<svg id="Groupe_49" data-name="Groupe 49" xmlns="http://www.w3.org/2000/svg" width="51.803" height="51.765" viewBox="0 0 51.803 51.765">
  <path id="Tracé_297" data-name="Tracé 297" d="M53.536,24.96a1.172,1.172,0,0,0,1.643,0l3.959-3.922a1.172,1.172,0,0,0,0-1.643l-3.959-3.959a1.162,1.162,0,0,0-1.643,1.643l3.1,3.1-3.1,3.1A1.218,1.218,0,0,0,53.536,24.96Z" transform="translate(-33.33 -9.46)" fill="#2236aa"/>
  <path id="Tracé_298" data-name="Tracé 298" d="M33.544,24.96a1.172,1.172,0,0,0,1.643,0l3.959-3.922a1.172,1.172,0,0,0,0-1.643l-3.922-3.959a1.162,1.162,0,1,0-1.643,1.643l3.1,3.1-3.1,3.1A1.184,1.184,0,0,0,33.544,24.96Z" transform="translate(-20.808 -9.46)" fill="#2236aa"/>
  <path id="Tracé_299" data-name="Tracé 299" d="M13.636,24.96a1.172,1.172,0,0,0,1.643,0l3.959-3.922a1.172,1.172,0,0,0,0-1.643l-3.959-3.959a1.162,1.162,0,0,0-1.643,1.643l3.1,3.1-3.1,3.1A1.218,1.218,0,0,0,13.636,24.96Z" transform="translate(-8.333 -9.46)" fill="#2236aa"/>
  <path id="Tracé_300" data-name="Tracé 300" d="M35.108,73.881V68.764c0-3.324-5.191-5.864-12.1-5.864s-12.1,2.5-12.1,5.864v5.117C4.631,74.142,0,76.57,0,79.707v5.6c0,3.324,5.191,5.864,12.1,5.864,4.93,0,9-1.307,10.943-3.249,1.9,1.979,5.976,3.249,10.943,3.249,6.91,0,12.1-2.5,12.1-5.864v-5.6C46.051,76.57,41.42,74.142,35.108,73.881Zm-12.1,4c-5.938,0-9.748-2.092-9.748-3.511V72.312c2.166,1.419,5.677,2.316,9.748,2.316,4.108,0,7.582-.9,9.748-2.316v2.054C32.792,75.785,28.983,77.877,23.007,77.877Zm0-12.624c5.938,0,9.748,2.092,9.748,3.511s-3.772,3.511-9.748,3.511c-5.938,0-9.748-2.092-9.748-3.511S17.068,65.253,23.007,65.253ZM11.5,76.2c1.382,2.2,5.266,3.772,10.234,4-.71,1.382-4.3,3.025-9.636,3.025-5.938,0-9.748-2.092-9.748-3.511C2.353,78.325,5.9,76.346,11.5,76.2Zm.6,12.661c-5.938,0-9.748-2.092-9.748-3.511V83.292c2.166,1.419,5.677,2.316,9.748,2.316,4.108,0,7.582-.9,9.748-2.316v2.054C21.849,86.766,18.039,88.857,12.1,88.857Zm31.6-3.548c0,1.419-3.81,3.511-9.748,3.511S24.2,86.729,24.2,85.309V83.255c2.166,1.419,5.677,2.316,9.748,2.316,4.108,0,7.582-.9,9.748-2.316ZM33.95,83.218c-5.3,0-8.889-1.643-9.636-3.025,4.967-.224,8.852-1.793,10.234-4,5.6.149,9.15,2.129,9.15,3.511C43.7,81.164,39.888,83.218,33.95,83.218Z" transform="translate(0 -39.408)" fill="#2236aa"/>
  <path id="Tracé_301" data-name="Tracé 301" d="M91.856,0a10.756,10.756,0,1,0,10.756,10.756A10.759,10.759,0,0,0,91.856,0Zm0,19.123a8.4,8.4,0,1,1,8.4-8.4A8.416,8.416,0,0,1,91.856,19.123Z" transform="translate(-50.81)" fill="#2236aa"/>
  <path id="Tracé_302" data-name="Tracé 302" d="M105.669,20.087H103.54V17.958a1.158,1.158,0,1,0-2.316,0v2.129H99.058a1.158,1.158,0,1,0,0,2.316h2.129v2.129a1.158,1.158,0,1,0,2.316,0V22.4h2.129a1.164,1.164,0,0,0,1.158-1.158A1.109,1.109,0,0,0,105.669,20.087Z" transform="translate(-61.336 -10.525)" fill="#2236aa"/>
</svg>
