<svg id="Groupe_3380" data-name="Groupe 3380" xmlns="http://www.w3.org/2000/svg" width="67" height="67" viewBox="0 0 67 67">
  <path id="Tracé_5925" data-name="Tracé 5925" d="M26.078,30.356H36.334a1.378,1.378,0,0,0,0-2.756H26.078a1.378,1.378,0,0,0,0,2.756Z" transform="translate(-12.096 -13.516)" fill="#2236aa"/>
  <path id="Tracé_5926" data-name="Tracé 5926" d="M26.078,46.656H36.334a1.378,1.378,0,0,0,0-2.756H26.078a1.378,1.378,0,0,0,0,2.756Z" transform="translate(-12.096 -21.499)" fill="#2236aa"/>
  <path id="Tracé_5927" data-name="Tracé 5927" d="M26.078,63.056H36.334a1.378,1.378,0,0,0,0-2.756H26.078A1.372,1.372,0,0,0,24.7,61.678,1.405,1.405,0,0,0,26.078,63.056Z" transform="translate(-12.096 -29.53)" fill="#2236aa"/>
  <path id="Tracé_5928" data-name="Tracé 5928" d="M68.714,46.891a1.661,1.661,0,0,0,.714.2,1.276,1.276,0,0,0,.714-.2L88.411,36.329a1.483,1.483,0,0,0,.714-1.225,1.374,1.374,0,0,0-.714-1.225L70.092,23.316a1.336,1.336,0,0,0-1.378,0A1.374,1.374,0,0,0,68,24.541V45.667A1.374,1.374,0,0,0,68.714,46.891Zm2.092-19.952L84.941,35.1,70.807,43.268Z" transform="translate(-33.301 -11.325)" fill="#2236aa"/>
  <path id="Tracé_5929" data-name="Tracé 5929" d="M21.992,105.4a2.092,2.092,0,1,0,2.092,2.092A2.135,2.135,0,0,0,21.992,105.4Z" transform="translate(-9.745 -51.616)" fill="#2236aa"/>
  <path id="Tracé_5930" data-name="Tracé 5930" d="M40.992,105.4a2.092,2.092,0,1,0,2.092,2.092A2.069,2.069,0,0,0,40.992,105.4Z" transform="translate(-19.05 -51.616)" fill="#2236aa"/>
  <path id="Tracé_5931" data-name="Tracé 5931" d="M60.092,105.4a2.092,2.092,0,1,0,0,4.184,2.069,2.069,0,0,0,2.092-2.092A2.135,2.135,0,0,0,60.092,105.4Z" transform="translate(-28.404 -51.616)" fill="#2236aa"/>
  <path id="Tracé_5932" data-name="Tracé 5932" d="M95.027,106.8H80.178a1.378,1.378,0,0,0,0,2.756H95.027a1.378,1.378,0,1,0,0-2.756Z" transform="translate(-38.59 -52.302)" fill="#2236aa"/>
  <path id="Tracé_5933" data-name="Tracé 5933" d="M61.03,0H5.919A5.924,5.924,0,0,0,0,5.919V61.081A5.924,5.924,0,0,0,5.919,67H61.081A5.924,5.924,0,0,0,67,61.081V5.919A6,6,0,0,0,61.03,0ZM5.919,2.756H61.081a3.093,3.093,0,0,1,3.113,3.113V44.8H2.756V5.919A3.18,3.18,0,0,1,5.919,2.756ZM61.03,64.142H5.919A3.093,3.093,0,0,1,2.807,61.03V47.558H64.193V61.03A3.169,3.169,0,0,1,61.03,64.142Z" fill="#2236aa"/>
</svg>
