<svg id="Groupe_3381" data-name="Groupe 3381" xmlns="http://www.w3.org/2000/svg" width="69" height="69" viewBox="0 0 69 69">
  <path id="Tracé_5934" data-name="Tracé 5934" d="M33.615,17.339a1.369,1.369,0,0,0,0-2.739H15.969A1.36,1.36,0,0,0,14.6,15.969V60.582a1.36,1.36,0,0,0,1.369,1.369H46.993a1.36,1.36,0,0,0,1.369-1.369v-10.9a1.369,1.369,0,0,0-2.739,0v9.534H17.339V17.339Z" transform="translate(-6.91 -6.91)" fill="#2236aa"/>
  <path id="Tracé_5935" data-name="Tracé 5935" d="M47.721,43.138a1.36,1.36,0,0,0-1.369,1.369V60.941a5.226,5.226,0,0,1-5.215,5.215H8.006a5.226,5.226,0,0,1-5.215-5.215V8.006A5.226,5.226,0,0,1,8.006,2.792H32.13A1.36,1.36,0,0,0,33.5,1.422,1.341,1.341,0,0,0,32.13,0H8.006A8,8,0,0,0,0,8.006V60.994A8,8,0,0,0,8.006,69H41.084a8,8,0,0,0,8.006-8.006V44.56A1.341,1.341,0,0,0,47.721,43.138Z" fill="#2236aa"/>
  <path id="Tracé_5936" data-name="Tracé 5936" d="M110.492,85.3a2.792,2.792,0,1,0,2.792,2.792A2.81,2.81,0,0,0,110.492,85.3Z" transform="translate(-50.973 -40.371)" fill="#2236aa"/>
  <path id="Tracé_5937" data-name="Tracé 5937" d="M110.492,107.9a2.792,2.792,0,1,0,2.792,2.792A2.81,2.81,0,0,0,110.492,107.9Z" transform="translate(-50.973 -51.067)" fill="#2236aa"/>
  <path id="Tracé_5938" data-name="Tracé 5938" d="M40.469,112.5a1.369,1.369,0,0,0,0,2.739h5.478a1.369,1.369,0,1,0,0-2.739Z" transform="translate(-18.505 -53.244)" fill="#2236aa"/>
  <path id="Tracé_5939" data-name="Tracé 5939" d="M76.489,0A19.489,19.489,0,1,0,95.977,19.489,19.512,19.512,0,0,0,76.489,0Zm0,36.238a16.723,16.723,0,1,1,16.75-16.7A16.758,16.758,0,0,1,76.489,36.238Z" transform="translate(-26.977)" fill="#2236aa"/>
  <path id="Tracé_5940" data-name="Tracé 5940" d="M94.467,28.032a1.408,1.408,0,0,0-1.949.211l-7.163,9.112L78.191,28.3a1.386,1.386,0,0,0-2.16,1.738L84.3,40.515a1.425,1.425,0,0,0,2.212,0l8.164-10.534A1.408,1.408,0,0,0,94.467,28.032Z" transform="translate(-35.843 -13.126)" fill="#2236aa"/>
</svg>
