<svg id="Groupe_3410" data-name="Groupe 3410" xmlns="http://www.w3.org/2000/svg" width="56" height="55.759" viewBox="0 0 56 55.759">
  <path id="Tracé_286" data-name="Tracé 286" d="M104.71,20.821a1.81,1.81,0,1,0-1.81-1.81A1.8,1.8,0,0,0,104.71,20.821Z" transform="translate(-61.503 -10.28)" fill="#2236aa"/>
  <path id="Tracé_287" data-name="Tracé 287" d="M104.71,38.021a1.81,1.81,0,1,0-1.81-1.81A1.8,1.8,0,0,0,104.71,38.021Z" transform="translate(-61.503 -20.561)" fill="#2236aa"/>
  <circle id="Ellipse_13" data-name="Ellipse 13" cx="1.81" cy="1.81" r="1.81" transform="translate(41.397 20.759)" fill="#2236aa"/>
  <path id="Tracé_288" data-name="Tracé 288" d="M36.392,16.7H18.047A1.253,1.253,0,0,0,16.8,17.947v8.207A1.253,1.253,0,0,0,18.047,27.4H36.432a1.253,1.253,0,0,0,1.247-1.247V17.987A1.271,1.271,0,0,0,36.392,16.7Zm-1.247,8.207H19.294V19.234H35.145Z" transform="translate(-10.041 -9.982)" fill="#2236aa"/>
  <path id="Tracé_289" data-name="Tracé 289" d="M24.259,57.3H18.747a1.247,1.247,0,0,0,0,2.494h5.511a1.247,1.247,0,0,0,0-2.494Z" transform="translate(-10.46 -34.248)" fill="#2236aa"/>
  <path id="Tracé_290" data-name="Tracé 290" d="M54.8,57.3H49.247a1.247,1.247,0,0,0,0,2.494h5.511a1.253,1.253,0,0,0,1.247-1.247A1.2,1.2,0,0,0,54.8,57.3Z" transform="translate(-28.69 -34.248)" fill="#2236aa"/>
  <path id="Tracé_291" data-name="Tracé 291" d="M24.259,72.6H18.747a1.247,1.247,0,1,0,0,2.494h5.511a1.247,1.247,0,0,0,0-2.494Z" transform="translate(-10.46 -43.393)" fill="#2236aa"/>
  <path id="Tracé_292" data-name="Tracé 292" d="M54.8,72.6H49.247a1.247,1.247,0,0,0,0,2.494h5.511a1.253,1.253,0,0,0,1.247-1.247A1.2,1.2,0,0,0,54.8,72.6Z" transform="translate(-28.69 -43.393)" fill="#2236aa"/>
  <path id="Tracé_293" data-name="Tracé 293" d="M24.259,87.9H18.747a1.247,1.247,0,1,0,0,2.494h5.511a1.247,1.247,0,0,0,0-2.494Z" transform="translate(-10.46 -52.538)" fill="#2236aa"/>
  <path id="Tracé_294" data-name="Tracé 294" d="M54.8,87.9H49.247a1.247,1.247,0,0,0,0,2.494h5.511a1.253,1.253,0,0,0,1.247-1.247A1.219,1.219,0,0,0,54.8,87.9Z" transform="translate(-28.69 -52.538)" fill="#2236aa"/>
  <path id="Tracé_295" data-name="Tracé 295" d="M31.822,6.034V28.644a1.247,1.247,0,1,0,2.494,0V6.034A6.026,6.026,0,0,0,28.282,0H6.034A6.026,6.026,0,0,0,0,6.034V40.31a6.026,6.026,0,0,0,6.034,6.034H26.069a1.247,1.247,0,1,0,0-2.494H6.034a3.545,3.545,0,0,1-3.54-3.54V6.034a3.545,3.545,0,0,1,3.54-3.54H28.322A3.563,3.563,0,0,1,31.822,6.034Z" fill="#2236aa"/>
  <path id="Tracé_296" data-name="Tracé 296" d="M88.393,77.7c-6.2,0-12.793,2.132-12.793,6.034V96.166c0,3.943,6.6,6.034,12.793,6.034s12.793-2.132,12.793-6.034V83.734C101.186,79.792,94.589,77.7,88.393,77.7ZM98.652,90.01c0,1.448-3.983,3.5-10.259,3.5s-10.259-2.092-10.259-3.5V87.476c2.494,1.529,6.437,2.333,10.259,2.333s7.764-.8,10.259-2.333ZM88.393,80.234c6.276,0,10.259,2.092,10.259,3.5,0,1.448-3.983,3.5-10.259,3.5s-10.259-2.092-10.259-3.5S82.157,80.234,88.393,80.234Zm0,19.471c-6.276,0-10.259-2.092-10.259-3.5V93.752c2.494,1.529,6.437,2.333,10.259,2.333s7.764-.8,10.259-2.333v2.454C98.652,97.614,94.669,99.706,88.393,99.706Z" transform="translate(-45.186 -46.441)" fill="#2236aa"/>
</svg>
