<svg id="Groupe_3408" data-name="Groupe 3408" xmlns="http://www.w3.org/2000/svg" width="55.655" height="61.825" viewBox="0 0 55.655 61.825">
  <path id="Tracé_5962" data-name="Tracé 5962" d="M21.8,22.49c-.383-.294-1.306-1.016-1.36-1.055a3.793,3.793,0,0,1-1.733-2.547V2.636A2.639,2.639,0,0,0,16.07,0H10.636A2.639,2.639,0,0,0,8,2.636V18.887a3.8,3.8,0,0,1-1.733,2.547c-.054.039-.972.761-1.36,1.055C1.953,24.752,0,26.249,0,32.365V56.293a5.541,5.541,0,0,0,5.532,5.532H21.179a5.541,5.541,0,0,0,5.532-5.532V32.365C26.711,26.249,24.757,24.752,21.8,22.49ZM10.111,2.636a.532.532,0,0,1,.525-.525H16.07a.532.532,0,0,1,.525.525V5.8H10.111ZM24.605,56.288a3.429,3.429,0,0,1-3.426,3.426H5.532a3.429,3.429,0,0,1-3.426-3.426V32.365c0-5.075,1.281-6.052,4.084-8.2L7.554,23.1a5.717,5.717,0,0,0,2.552-4.167V7.9h6.489V18.936A5.717,5.717,0,0,0,19.147,23.1l1.365,1.06c2.8,2.15,4.084,3.127,4.084,8.2V56.288Z" fill="#2236aa"/>
  <path id="Tracé_5963" data-name="Tracé 5963" d="M25.892,64.56H13.935a1.054,1.054,0,0,0-1.055,1.055V81.366a1.054,1.054,0,0,0,1.055,1.055H25.9a1.054,1.054,0,0,0,1.055-1.055V65.61A1.06,1.06,0,0,0,25.892,64.56Zm-1.05,15.746H14.986V66.666h9.851v13.64Z" transform="translate(-6.558 -32.872)" fill="#2236aa"/>
  <path id="Tracé_5964" data-name="Tracé 5964" d="M87.738,52.141c0-4.393-1.286-9.875-2.489-14.666a1.055,1.055,0,0,0-1.021-.8H66.519a1.055,1.055,0,0,0-1.021.8c-1.2,4.79-2.488,10.273-2.488,14.666,0,6.886,4.8,12.158,11.314,12.678V78.391H69.1a1.055,1.055,0,1,0,0,2.111h12.56a1.055,1.055,0,1,0,0-2.111H76.429V64.819C82.947,64.3,87.738,59.027,87.738,52.141Zm-22.622,0a37.51,37.51,0,0,1,.653-6.238H77.848a1.055,1.055,0,1,0,0-2.111H66.176c.378-1.826.8-3.563,1.163-5.006h16.07c.913,3.657,2.223,9.174,2.223,13.355,0,6.052-4.413,10.612-10.258,10.612S65.116,58.193,65.116,52.141Z" transform="translate(-32.083 -18.676)" fill="#2236aa"/>
</svg>
