<svg xmlns="http://www.w3.org/2000/svg" width="55.771" height="55.759" viewBox="0 0 55.771 55.759">
  <g id="Groupe_3424" data-name="Groupe 3424" transform="translate(0.004 -0.003)">
    <path id="Tracé_5986" data-name="Tracé 5986" d="M77.043,130.63H57.62a1.26,1.26,0,0,0-1.26,1.26v7.848A1.26,1.26,0,0,0,57.62,141H77.043a1.26,1.26,0,0,0,1.26-1.26V131.89A1.262,1.262,0,0,0,77.043,130.63Zm-1.263,7.848h-16.9v-5.324h16.9v5.324Z" transform="translate(-39.449 -91.425)" fill="#2236aa"/>
    <path id="Tracé_5987" data-name="Tracé 5987" d="M55.415,50.01a1.26,1.26,0,0,0-.912-.39H1.258A1.262,1.262,0,0,0,0,50.937c.156,3.6,2.581,10.333,10.552,10.687.618.939,1.6,2.4,1.654,2.482a1.263,1.263,0,0,0,1.047.558H42.513a1.263,1.263,0,0,0,1.047-.558c.051-.078,1.035-1.543,1.654-2.482,7.971-.351,10.393-7.083,10.552-10.687A1.258,1.258,0,0,0,55.415,50.01ZM44.554,59.115h-.033a1.26,1.26,0,0,0-1.062.582c-.3.468-1.131,1.714-1.621,2.446H13.922c-.489-.732-1.32-1.975-1.621-2.443a1.26,1.26,0,0,0-1.062-.582h-.033c-6.245,0-8.01-4.628-8.5-6.971H53.056C52.564,54.491,50.8,59.115,44.554,59.115Z" transform="translate(0 -34.727)" fill="#2236aa"/>
    <path id="Tracé_5988" data-name="Tracé 5988" d="M55.427,110.02H16.314a4.909,4.909,0,0,0-4.9,4.9v12.935a4.909,4.909,0,0,0,4.9,4.9H55.427a4.909,4.909,0,0,0,4.9-4.9V114.924A4.909,4.909,0,0,0,55.427,110.02Zm0,20.221H16.314a2.385,2.385,0,0,1-2.383-2.383v-2.4h3.424a1.26,1.26,0,1,0,0-2.521H13.931v-3.082h3.424a1.26,1.26,0,1,0,0-2.521H13.931v-2.4a2.385,2.385,0,0,1,2.383-2.383H55.427a2.385,2.385,0,0,1,2.383,2.383v2.4H54.385a1.26,1.26,0,0,0,0,2.521h3.424v3.082H54.385a1.26,1.26,0,0,0,0,2.521h3.424v2.4A2.387,2.387,0,0,1,55.427,130.241Z" transform="translate(-7.989 -77)" fill="#2236aa"/>
    <path id="Tracé_5989" data-name="Tracé 5989" d="M40.578,11.8a1.265,1.265,0,0,0,1.477-1,4.863,4.863,0,0,1,4.79-3.742A1.26,1.26,0,0,0,47.873,6.4c2.191-4.009,7.593-3.883,7.644-3.877h.1c.054,0,5.438-.162,7.647,3.88a1.26,1.26,0,0,0,1.029.654,4.866,4.866,0,0,1,4.79,3.739,1.258,1.258,0,0,0,1.236,1.023,1.226,1.226,0,0,0,.231-.021,1.262,1.262,0,0,0,1.011-1.471,7.4,7.4,0,0,0-6.434-5.726C62.132-.022,56.213-.013,55.568,0,54.923-.007,49-.022,46.01,4.609a7.389,7.389,0,0,0-6.437,5.726A1.26,1.26,0,0,0,40.578,11.8Z" transform="translate(-27.685 0)" fill="#2236aa"/>
  </g>
</svg>
