<svg xmlns="http://www.w3.org/2000/svg" width="63.469" height="63.554" viewBox="0 0 63.469 63.554">
  <g id="Groupe_3394" data-name="Groupe 3394" transform="translate(0 -0.1)">
    <path id="Tracé_5957" data-name="Tracé 5957" d="M37.4,38.178V59.363c0,4.494,7.52,6.878,14.582,6.878s14.582-2.43,14.582-6.878V38.178c0-4.494-7.52-6.878-14.582-6.878S37.4,33.684,37.4,38.178ZM63.675,52.347c0,1.651-4.54,3.989-11.693,3.989s-11.693-2.384-11.693-3.989v-2.8c2.843,1.742,7.337,2.66,11.693,2.66s8.85-.917,11.693-2.66Zm0-7.016c0,1.651-4.54,3.989-11.693,3.989s-11.693-2.384-11.693-3.989V42.443c2.843,1.742,7.337,2.66,11.693,2.66s8.85-.917,11.693-2.66ZM51.982,34.189c7.153,0,11.693,2.384,11.693,3.989,0,1.651-4.54,3.989-11.693,3.989s-11.693-2.384-11.693-3.989S44.828,34.189,51.982,34.189Zm0,29.163c-7.153,0-11.693-2.384-11.693-3.989v-2.8c2.843,1.742,7.337,2.66,11.693,2.66s8.85-.917,11.693-2.66v2.8C63.675,61.014,59.135,63.352,51.982,63.352Z" transform="translate(-20.25 -16.893)" fill="#2236aa"/>
    <path id="Tracé_5958" data-name="Tracé 5958" d="M7.841,11.289,4.906,8.308H31.731a31.944,31.944,0,0,1,12.151,2.155c7.658,3.164,8.483,8.621,8.483,10.776V31.831a1.421,1.421,0,0,0,2.843,0V21.285c0-2.751-1.009-9.584-10.271-13.435A35.032,35.032,0,0,0,31.685,5.465H4.906L7.841,2.53a1.439,1.439,0,0,0,0-2.018,1.439,1.439,0,0,0-2.018,0L.413,5.878a1.439,1.439,0,0,0,0,2.018l5.411,5.411a1.439,1.439,0,0,0,2.018,0A1.362,1.362,0,0,0,7.841,11.289Z" transform="translate(0)" fill="#2236aa"/>
    <path id="Tracé_5959" data-name="Tracé 5959" d="M72.8,91.7l-5.411-5.411a1.427,1.427,0,0,0-2.018,2.018L68.3,91.245H41.478A31.943,31.943,0,0,1,29.326,89.09c-7.658-3.164-8.483-8.575-8.483-10.776V67.721a1.421,1.421,0,1,0-2.843,0V78.314c0,2.751,1.009,9.584,10.271,13.435a35.032,35.032,0,0,0,13.252,2.384H68.348l-2.935,2.935a1.439,1.439,0,0,0,0,2.018,1.439,1.439,0,0,0,2.018,0l5.411-5.411A1.428,1.428,0,0,0,72.8,91.7Z" transform="translate(-9.746 -35.844)" fill="#2236aa"/>
  </g>
</svg>
