<svg xmlns="http://www.w3.org/2000/svg" width="120.724" height="69.784" viewBox="0 0 120.724 69.784">
  <g id="Logo" transform="translate(0 0.062)">
    <path id="Tracé_239" data-name="Tracé 239" d="M155.428,17.549,95.194.082a3.532,3.532,0,0,0-3.481.9,3.755,3.755,0,0,0-.9,3.574l16.442,62.348a3.807,3.807,0,0,0,2.549,2.673,3.46,3.46,0,0,0,1.865.031,3.563,3.563,0,0,0,1.616-.932L157.044,23.8a3.755,3.755,0,0,0,.9-3.574A3.657,3.657,0,0,0,155.428,17.549Z" transform="translate(-62.497 0)" fill="#e5e5e5"/>
    <g id="Groupe_15" data-name="Groupe 15" transform="translate(0 15.467)">
      <path id="Tracé_240" data-name="Tracé 240" d="M0,85.388a.723.723,0,0,1,.715-.715H2.082a.6.6,0,0,1,.622.4l.528,1.4A6.671,6.671,0,0,1,8.174,84.3a5.74,5.74,0,0,1,4.786,2.3,7.549,7.549,0,0,1,5.19-2.3c4.724,0,6.465,3.512,6.465,7.4v7.055a.723.723,0,0,1-.715.715H20.917a.723.723,0,0,1-.715-.715v-7.3c0-1.927-.932-3.139-2.766-3.139a3.727,3.727,0,0,0-3.108,1.554s.031.746.031,1.4v7.49a.723.723,0,0,1-.715.715H10.878a.723.723,0,0,1-.715-.715v-7.3c0-1.927-.839-3.139-2.735-3.139A3.293,3.293,0,0,0,4.32,90.64v8.112a.723.723,0,0,1-.715.715H.715A.723.723,0,0,1,0,98.753Z" transform="translate(0 -73.608)" fill="#2236aa"/>
      <path id="Tracé_241" data-name="Tracé 241" d="M95.005,90.112a9.507,9.507,0,0,1,2.7.4c.031-1.9-.559-2.549-1.927-2.549a18.2,18.2,0,0,0-4.134.559c-.528.155-.777-.186-.839-.653l-.342-1.927A.729.729,0,0,1,91,85.015a19.2,19.2,0,0,1,5.035-.715c4.6,0,5.688,2.393,5.688,6.434v8.019a.723.723,0,0,1-.715.715H99.636c-.249,0-.435-.124-.622-.528l-.435-.995a6.305,6.305,0,0,1-4.507,1.9A4.708,4.708,0,0,1,89.1,94.774C89.1,92.163,91.245,90.112,95.005,90.112Zm.062,6.589a3.426,3.426,0,0,0,2.549-1.43V93.22a5.88,5.88,0,0,0-2.082-.435c-1.43,0-2.393.808-2.393,1.989A1.844,1.844,0,0,0,95.068,96.7Z" transform="translate(-61.407 -73.608)" fill="#2236aa"/>
      <path id="Tracé_242" data-name="Tracé 242" d="M141.5,78.7h-1.243a.657.657,0,0,1-.653-.653V75.532a.692.692,0,0,1,.653-.715H141.5V70.746a.745.745,0,0,1,.715-.715L145.226,70a.691.691,0,0,1,.653.715v4.134h3.263a.723.723,0,0,1,.715.715V78.05a.723.723,0,0,1-.715.715h-3.263V84.67c0,1.026.559,1.181,1.15,1.181a5.718,5.718,0,0,0,1.8-.4.559.559,0,0,1,.808.4l.746,2.331a.676.676,0,0,1-.4.9,13.462,13.462,0,0,1-4.382.964c-2.828,0-4.1-1.772-4.1-4.755Z" transform="translate(-96.211 -63.753)" fill="#2236aa"/>
      <path id="Tracé_243" data-name="Tracé 243" d="M184.2,50.615a.723.723,0,0,1,.715-.715h3.139a.723.723,0,0,1,.715.715V61.276a9.043,9.043,0,0,1,3.295-.653c4.382,0,7.3,3.419,7.3,7.739,0,4.258-3.077,7.739-7.086,7.739a6.51,6.51,0,0,1-4.849-2.207l-.373,1.15c-.124.4-.373.715-.715.715h-1.43a.723.723,0,0,1-.715-.715Zm7.49,21.508a3.533,3.533,0,0,0,3.357-3.854,3.808,3.808,0,0,0-4.413-3.605,4.362,4.362,0,0,0-2.051.777V69.73A3.225,3.225,0,0,0,191.69,72.123Z" transform="translate(-126.949 -49.9)" fill="#2236aa"/>
      <path id="Tracé_244" data-name="Tracé 244" d="M242.7,86.215a.723.723,0,0,1,.715-.715h3.015a.723.723,0,0,1,.715.715v7.273c0,1.958.995,3.17,2.7,3.17a3.242,3.242,0,0,0,2.953-2.766V86.215c0-.559.218-.715.808-.715h2.8a.723.723,0,0,1,.715.715V99.58a.723.723,0,0,1-.715.715h-1.368a.765.765,0,0,1-.715-.559l-.435-1.212a6.56,6.56,0,0,1-4.942,2.145c-4.569,0-6.247-3.512-6.247-7.273v-7.18Z" transform="translate(-167.267 -74.435)" fill="#2236aa"/>
      <path id="Tracé_245" data-name="Tracé 245" d="M303.3,85.319a.723.723,0,0,1,.715-.715h1.4a.645.645,0,0,1,.653.466l.528,1.43a5.178,5.178,0,0,1,4.165-2.3c1.741,0,3.295.559,2.828,1.492l-1.368,2.393a.671.671,0,0,1-.839.342,4.331,4.331,0,0,0-1.057-.218,2.918,2.918,0,0,0-2.611,1.523v8.92a.723.723,0,0,1-.715.715h-2.984a.723.723,0,0,1-.715-.715Z" transform="translate(-209.032 -73.539)" fill="#2236aa"/>
      <path id="Tracé_246" data-name="Tracé 246" d="M349.217,84.664a7.629,7.629,0,0,1,5.532,5.874,7.585,7.585,0,1,1-14.95,1.585A7.607,7.607,0,0,1,349.217,84.664Zm-1.865,11.251a3.681,3.681,0,0,0,3.543-3.792,3.551,3.551,0,1,0-3.543,3.792Z" transform="translate(-234.187 -73.692)" fill="#2236aa"/>
    </g>
  </g>
</svg>
