<svg xmlns="http://www.w3.org/2000/svg" width="25.109" height="23.993" viewBox="0 0 25.109 23.993">
  <path id="Tracé_5180" data-name="Tracé 5180" d="M25.109,14.717v9.276H19.738V15.344c0-2.162-.767-3.662-2.72-3.662a2.94,2.94,0,0,0-2.755,1.953,3.818,3.818,0,0,0-.174,1.325v9.032H8.684s.07-14.682,0-16.181h5.371v2.3c0,.035-.035.035-.035.07h.035v-.07A5.337,5.337,0,0,1,18.9,7.428c3.557,0,6.207,2.3,6.207,7.289ZM3.034,0A2.819,2.819,0,0,0,0,2.79,2.779,2.779,0,0,0,2.964,5.58H3A2.8,2.8,0,0,0,6.033,2.79a2.77,2.77,0,0,0-3-2.79ZM.314,23.993H5.684V7.812H.314Zm0,0" fill="#f2cb2a"/>
</svg>
