<svg xmlns="http://www.w3.org/2000/svg" width="25.611" height="20.893" viewBox="0 0 25.611 20.893">
  <path id="Tracé_5178" data-name="Tracé 5178" d="M25.61,27.161a12.154,12.154,0,0,1-2.965.809A5.127,5.127,0,0,0,24.937,25a10.114,10.114,0,0,1-3.37,1.213A4.895,4.895,0,0,0,17.793,24.6a5.235,5.235,0,0,0-5.122,6.47A14.877,14.877,0,0,1,1.887,25.544,5.326,5.326,0,0,0,3.5,32.553a5.492,5.492,0,0,1-2.426-.674,5.467,5.467,0,0,0,4.179,5.257,6.939,6.939,0,0,1-2.426.135A5.055,5.055,0,0,0,7.683,40.91,9.822,9.822,0,0,1,0,43.067a15.023,15.023,0,0,0,8.088,2.426c9.705,0,15.231-8.222,14.962-15.636A16.036,16.036,0,0,0,25.61,27.161Z" transform="translate(0 -24.6)" fill="#f2cb2a"/>
</svg>
